# xmcd CD database file
#
# Track frame offsets:
#	150
#	19897
#	46600
#	82887
#	110677
#	139612
#	158665
#	190727
#	218637
#	243575
#	266557
#	296100
#
# Disc length: 4212 seconds
#
# Revision: 1
# Processed by: cddbd v1.5.1PL0 Copyright (c) Steve Scherf et al.
# Submitted via: CDex 1.51
#
DISCID=a110720c
DTITLE=Sir Charles Thompson - Robbins' Nest - Live At The Jazz Showcase
DYEAR=2000
DGENRE=Jazz
TTITLE0=Robbins' Nest
TTITLE1='s Wonderful
TTITLE2=Tunis In (Tune Us In)
TTITLE3=You Don't Know What Love Is
TTITLE4=Body And Soul
TTITLE5=A Boogie Woogie
TTITLE6=Stuffy
TTITLE7=Easy Living
TTITLE8=The King
TTITLE9=Blue And Sentimental
TTITLE10=I Never Knew
TTITLE11=Goodbye
EXTD=YEAR: 2000
EXTT0=
EXTT1=
EXTT2=
EXTT3=
EXTT4=
EXTT5=
EXTT6=
EXTT7=
EXTT8=
EXTT9=
EXTT10=
EXTT11=
PLAYORDER=
